<?xml version="1.0" encoding="UTF-8" standalone="no"?>
<!-- Created with Inkscape (http://www.inkscape.org/) -->

<svg
   xmlns:dc="http://purl.org/dc/elements/1.1/"
   xmlns:cc="http://creativecommons.org/ns#"
   xmlns:rdf="http://www.w3.org/1999/02/22-rdf-syntax-ns#"
   xmlns:svg="http://www.w3.org/2000/svg"
   xmlns="http://www.w3.org/2000/svg"
   xmlns:sodipodi="http://sodipodi.sourceforge.net/DTD/sodipodi-0.dtd"
   xmlns:inkscape="http://www.inkscape.org/namespaces/inkscape"
   width="137.48254mm"
   height="137.48254mm"
   viewBox="0 0 487.14287 487.14287"
   id="svg2"
   version="1.1"
   inkscape:version="0.91 r13725"
   sodipodi:docname="icon.svg">
  <defs
     id="defs4" />
  <sodipodi:namedview
     id="base"
     pagecolor="#ffffff"
     bordercolor="#666666"
     borderopacity="1.0"
     inkscape:pageopacity="0.0"
     inkscape:pageshadow="2"
     inkscape:zoom="1.4"
     inkscape:cx="1.514839"
     inkscape:cy="196.03324"
     inkscape:document-units="px"
     inkscape:current-layer="layer1"
     showgrid="false"
     fit-margin-top="0"
     fit-margin-left="0"
     fit-margin-right="0"
     fit-margin-bottom="0"
     inkscape:window-width="2507"
     inkscape:window-height="1056"
     inkscape:window-x="53"
     inkscape:window-y="24"
     inkscape:window-maximized="1" />
  <metadata
     id="metadata7">
    <rdf:RDF>
      <cc:Work
         rdf:about="">
        <dc:format>image/svg+xml</dc:format>
        <dc:type
           rdf:resource="http://purl.org/dc/dcmitype/StillImage" />
        <dc:title />
      </cc:Work>
    </rdf:RDF>
  </metadata>
  <g
     inkscape:label="Layer 1"
     inkscape:groupmode="layer"
     id="layer1"
     transform="translate(-98.571426,-80.933632)">
    <g
       id="g4325"
       transform="matrix(1.0973597,0,0,1.0973597,-9.03589,-36.296677)">
      <path
         id="path4168"
         d="m 325.11771,178.39824 c -12.31684,-0.0911 -24.60101,0.70835 -33.74474,2.42258 -62.79287,11.77215 -111.38498,53.24032 -127.90948,109.15776 -4.7097,15.93724 -5.61032,42.29991 -2.0335,59.51214 9.02515,43.43024 39.40159,81.55518 82.70522,103.79874 26.25357,13.48554 48.53674,18.304 80.70109,17.44987 18.56941,-0.49313 21.97179,-0.95668 37.70652,-5.14123 9.51195,-2.52966 19.74174,-4.60045 22.73304,-4.60045 7.94347,0 19.45026,3.98939 35.77091,12.40162 16.83582,8.67779 17.2788,8.42729 11.33225,-6.42348 -4.39202,-10.96858 -4.79949,-18.09997 -1.45355,-25.46641 1.31616,-2.89762 8.43906,-11.23975 16.58363,-19.42219 20.83415,-20.931 32.36596,-39.84427 38.91291,-63.82627 2.52465,-9.24797 2.90709,-13.53514 2.90709,-32.57506 0,-18.99287 -0.38662,-23.34995 -2.89242,-32.57506 -15.63158,-57.54774 -62.74319,-98.89455 -127.37845,-111.79078 -9.27437,-1.85046 -21.62366,-2.83069 -33.94052,-2.92178 z m 45.51258,83.70851 c 6.08071,0.23695 13.21556,4.85113 16.35361,10.95786 4.85624,9.45038 2.26997,18.25155 -7.27017,24.74452 -7.29897,4.96762 -17.75809,3.01819 -24.07403,-4.48788 -9.36629,-11.13121 -2.50943,-28.21118 12.46281,-31.04076 0.81087,-0.15325 1.65912,-0.20759 2.52778,-0.17374 z m -119.68495,0.0955 c 0.73974,0.0192 1.48281,0.0901 2.22436,0.21533 18.17725,3.07102 22.25402,28.35841 5.82886,36.15265 -11.8806,5.63771 -25.60126,-1.42595 -27.7764,-14.30053 -1.87356,-11.08951 8.62697,-22.35443 19.72318,-22.06745 z"
         style="fill:#51dd98;fill-opacity:1"
         inkscape:connector-curvature="0" />
      <path
         inkscape:connector-curvature="0"
         id="rect4292"
         d="m 150.714,210.93391 0,32.14258 255.00001,0 0,142.14258 32.14258,0 0,-142.14258 0,-32.14258 -32.14258,0 -255.00001,0 z"
         style="opacity:1;fill:#575757;fill-opacity:1;stroke:none;stroke-width:1;stroke-linecap:round;stroke-linejoin:miter;stroke-miterlimit:4;stroke-dasharray:2, 1;stroke-dashoffset:0;stroke-opacity:1" />
      <path
         inkscape:connector-curvature="0"
         id="rect4292-2"
         d="m 464.99986,359.50479 0,-32.14257 -255.00001,0 0,-142.14258 -32.14258,0 0,142.14258 0,32.14257 32.14258,0 255.00001,0 z"
         style="opacity:1;fill:#575757;fill-opacity:1;stroke:none;stroke-width:1;stroke-linecap:round;stroke-linejoin:miter;stroke-miterlimit:4;stroke-dasharray:2, 1;stroke-dashoffset:0;stroke-opacity:1" />
    </g>
  </g>
</svg>
